<?xml version="1.0" standalone="no"?>
<!DOCTYPE svg PUBLIC "-//W3C//DTD SVG 20010904//EN"
 "http://www.w3.org/TR/2001/REC-SVG-20010904/DTD/svg10.dtd">
<svg version="1.0" xmlns="http://www.w3.org/2000/svg"
 width="512.000000pt" height="512.000000pt" viewBox="0 0 512.000000 512.000000"
 preserveAspectRatio="xMidYMid meet">

<g transform="translate(0.000000,512.000000) scale(0.100000,-0.100000)"
fill="#000000" stroke="none">
<path d="M2300 4865 c-820 -92 -1545 -629 -1869 -1385 -438 -1025 -98 -2202
819 -2832 790 -543 1830 -543 2620 0 500 343 849 872 964 1461 180 913 -197
1837 -964 2363 -459 316 -1016 455 -1570 393z m1475 -2420 c0 -166 -2 -183
-22 -222 -25 -46 -61 -75 -125 -100 -36 -14 -83 -17 -293 -18 -231 0 -255 2
-320 22 -79 25 -132 71 -160 138 -22 55 -78 109 -139 137 -70 31 -219 32 -286
2 -64 -30 -105 -67 -131 -122 -74 -157 -171 -189 -544 -179 -206 5 -269 18
-319 63 -56 52 -61 74 -64 277 l-4 187 1204 -2 1203 -3 0 -180z"/>
</g>
</svg>
